<svg xmlns="http://www.w3.org/2000/svg" width="24" height="24" viewBox="0 0 17 22" fill="none"><g><path d="M2 22C1.45 22 0.979167 21.8042 0.5875 21.4125C0.195833 21.0208 0 20.55 0 20V2C0 1.45 0.195833 0.979167 0.5875 0.5875C0.979167 0.195833 1.45 0 2 0H12C12.55 0 13.0208 0.195833 13.4125 0.5875C13.8042 0.979167 14 1.45 14 2V6H12V5H2V17H12V16H14V20C14 20.55 13.8042 21.0208 13.4125 21.4125C13.0208 21.8042 12.55 22 12 22H2ZM2 19V20H12V19H2ZM2 3H12V2H2V3Z" fill="var(--fill-0, #1A1A1A)"/><path d="M11.525 15C10.4083 15 9.45833 14.6125 8.675 13.8375C7.89167 13.0625 7.5 12.1167 7.5 11V10.9125L6.7 11.7125L6 11.0125L8 9.0125L10 11.0125L9.3 11.7125L8.5 10.9125V11C8.5 11.8333 8.79375 12.5417 9.38125 13.125C9.96875 13.7083 10.6833 14 11.525 14C11.7417 14 11.9542 13.975 12.1625 13.925C12.3708 13.875 12.575 13.8 12.775 13.7L13.525 14.45C13.2083 14.6333 12.8833 14.7708 12.55 14.8625C12.2167 14.9542 11.875 15 11.525 15ZM15 12.9875L13 10.9875L13.7 10.2875L14.5 11.0875V11C14.5 10.1667 14.2062 9.45833 13.6187 8.875C13.0312 8.29167 12.3167 8 11.475 8C11.2583 8 11.0458 8.025 10.8375 8.075C10.6292 8.125 10.425 8.2 10.225 8.3L9.475 7.55C9.79167 7.36667 10.1167 7.22917 10.45 7.1375C10.7833 7.04583 11.125 7 11.475 7C12.5917 7 13.5417 7.3875 14.325 8.1625C15.1083 8.9375 15.5 9.88333 15.5 11V11.0875L16.3 10.2875L17 10.9875L15 12.9875Z" fill="var(--fill-0, #1A1A1A)"/></svg>
