<svg xmlns="http://www.w3.org/2000/svg" width="24" height="24" viewBox="0 0 24 24" fill="none"><path d="M12 4.43769C12.2804 4.43769 12.5106 4.52842 12.6914 4.70918L19.292 11.3098C19.3901 11.3916 19.46 11.4936 19.501 11.6164C19.5422 11.7401 19.5625 11.8682 19.5625 12.0002C19.5625 12.1319 19.542 12.2553 19.501 12.3703C19.46 12.485 19.3899 12.5927 19.291 12.6916L12.6914 19.2912C12.5106 19.472 12.2804 19.5627 12 19.5627C11.7196 19.5627 11.4894 19.472 11.3086 19.2912C11.1278 19.1104 11.0337 18.8801 11.0254 18.5998C11.0171 18.3196 11.1035 18.0891 11.2842 17.9084L16.2051 12.9875H5C4.71981 12.9875 4.48511 12.8925 4.2959 12.7033C4.107 12.5142 4.01274 12.2801 4.0127 12.0002C4.0127 11.7201 4.10676 11.4853 4.2959 11.2961C4.48511 11.1069 4.71981 11.0129 5 11.0129H16.2051L16.1836 10.9914L11.2842 6.09101C11.1036 5.9104 11.0172 5.68074 11.0254 5.40059C11.0336 5.12027 11.1279 4.88999 11.3086 4.70918C11.4894 4.52842 11.7196 4.43769 12 4.43769Z" fill="#1A1A1A" stroke="#1A1A1A"/></svg>
